<svg version="1.2" xmlns="http://www.w3.org/2000/svg" viewBox="0 0 64 64" width="512" height="512">
	<title>New Project</title>
	<style>
		.s0 { fill: #ffffff;stroke: #000000;stroke-miterlimit:10 } 
		.s1 { fill: #3c7d3c;stroke: #000000;stroke-miterlimit:10 } 
		.s2 { fill: #6b3600;stroke: #000000;stroke-miterlimit:10 } 
		.s3 { fill: #01aa01 } 
		.s4 { fill: #01aa01;stroke: #000000;stroke-miterlimit:10 } 
		.s5 { fill: #9f5000 } 
	</style>
	<g id="Layer 1">
		<g id="Folder 1">
			<path id="Shape 1" fill-rule="evenodd" class="s0" d="m138.7-9.7"/>
			<path id="Shape 2" fill-rule="evenodd" class="s1" d="m20.6 52c-10.6-8.1-5.5-18.4-0.7-22.5 4-3.4 34.7-14 41.5-26.3 5.6-10-6.5 37.5-10.7 41.4-3.8 5-19.4 15.6-30.1 7.4z"/>
			<path id="Shape 3" fill-rule="evenodd" class="s2" d="m15.5 45.1c-3.7 3.1-8.8 2.2-13.2 2.8-0.8 0.1 2.8 5 3.5 5.9 0.7 1.1 1.4 2.3 2.1 3.5 0.9 1.6 1.4 2.4 2.1 4.1 0.1 0.3 0.3 0.8 0.4 0.8 0.4-0.1 2.5-3 2.7-3.2 1.5-3.2 4.2-6.8 7.7-7.3"/>
			<path id="Shape 10" fill-rule="evenodd" class="s3" d="m38.5 46.5c-12.9 12.4-18.3 2.5-20.4-0.5-6.5-8.9 13.9-19.5 15.3-20 12.7-4.6 24.5-13.4 23.2-9.9-2.2 6.4-8.4 21.1-18.1 30.4z"/>
			<path id="Shape 4" fill-rule="evenodd" class="s4" d="m20.8 45.9c11.1-2.3 20.7-10 27.9-18.4 2.3-2.8 4.3-5.7 6.3-8.7 0.7-1.1 1.3-2.1 1.6-3.3 0.2-0.6 0.6-2.4 0.6-1.8"/>
			<path id="Shape 5" fill-rule="evenodd" class="s0" d="m43.8 32.5c-1.3-1.6-1.6-5.5-1.4-7.4"/>
			<path id="Shape 6" fill-rule="evenodd" class="s0" d="m32.3 41.3c3.6 0.3 6.9 2 10.7 2.2"/>
		</g>
		<path id="Shape 8" fill-rule="evenodd" class="s5" d=""/>
		<path id="Shape 9" fill-rule="evenodd" class="s5" d="m10.4 48.7c-1.5 0.2-2.5 0.3-3.6 0.3-0.2 0-2.7 0-2.7 0.1 0 0.4 3.4 4.8 3.8 5.4 0.3 0.4 2.3 4.5 2.8 4.8 0.4 0.3 2.5-3.7 3-4.2 8.5-8.4 0.6-7-3.3-6.4z"/>
	</g>
</svg>